<?xml version="1.0" standalone="no"?>
<!DOCTYPE svg PUBLIC "-//W3C//DTD SVG 20010904//EN"
 "http://www.w3.org/TR/2001/REC-SVG-20010904/DTD/svg10.dtd">
<svg version="1.0" xmlns="http://www.w3.org/2000/svg"
 width="700.000000pt" height="700.000000pt" viewBox="0 0 700.000000 700.000000"
 preserveAspectRatio="xMidYMid meet">
<metadata>
Created by potrace 1.11, written by Peter Selinger 2001-2013
</metadata>
<g transform="translate(0.000000,700.000000) scale(0.100000,-0.100000)"
fill="#000000" stroke="none">
<path d="M920 3495 l0 -1925 785 0 785 0 0 1925 0 1925 -785 0 -785 0 0 -1925z"/>
<path d="M2720 2865 l0 -1295 785 0 785 0 0 1295 0 1295 -785 0 -785 0 0
-1295z"/>
<path d="M4510 2265 l0 -695 785 0 785 0 0 695 0 695 -785 0 -785 0 0 -695z"/>
</g>
</svg>
